<svg width="64" height="64" viewBox="0 0 64 64" fill="none" xmlns="http://www.w3.org/2000/svg">
<circle cx="32" cy="32" r="32" fill="#7869BA"/>
<path d="M16.56 46V43.04C16.56 41.5467 16.6667 40.0533 16.88 38.56C17.0933 37.0667 17.3467 35.5867 17.64 34.12C17.9333 32.6267 18.2533 31.1467 18.6 29.68C18.9467 28.2133 19.3067 26.76 19.68 25.32C20.08 23.8533 20.4933 22.4 20.92 20.96C21.3467 19.4933 21.7733 18.04 22.2 16.6H25.8C26.2267 18.04 26.6533 19.4933 27.08 20.96C27.5067 22.4 27.9067 23.8533 28.28 25.32C28.68 26.76 29.0533 28.2133 29.4 29.68C29.7467 31.1467 30.0667 32.6267 30.36 34.12C30.6533 35.5867 30.9067 37.0667 31.12 38.56C31.3333 40.0533 31.44 41.5467 31.44 43.04V46H28.32V43.04C28.32 42.2667 28.2933 41.4933 28.24 40.72C28.1867 39.9467 28.1067 39.1733 28 38.4H20C19.8933 39.1733 19.8133 39.9467 19.76 40.72C19.7067 41.4933 19.68 42.2667 19.68 43.04V46H16.56ZM20.4 35.6H27.6C27.1733 32.88 26.64 30.1733 26 27.48C25.36 24.7867 24.6933 22.1067 24 19.44C23.3067 22.1067 22.64 24.7867 22 27.48C21.36 30.1733 20.8267 32.88 20.4 35.6ZM34.96 46V25.2H38.08V29.68C38.24 29.0933 38.4533 28.5067 38.72 27.92C39.0133 27.3333 39.3733 26.8133 39.8 26.36C40.2267 25.88 40.7333 25.52 41.32 25.28C41.9333 25.0133 42.56 24.88 43.2 24.88C43.68 24.88 44.16 24.9467 44.64 25.08C45.1467 25.1867 45.6 25.3867 46 25.68C46.4 25.9733 46.7333 26.3333 47 26.76C47.2933 27.16 47.5067 27.6 47.64 28.08C47.8 28.5333 47.9067 29.0133 47.96 29.52C48.0133 30 48.04 30.4933 48.04 31H44.92C44.92 30.6 44.88 30.2133 44.8 29.84C44.7467 29.44 44.6133 29.0667 44.4 28.72C44.2133 28.3733 43.9333 28.12 43.56 27.96C43.2133 27.7733 42.84 27.68 42.44 27.68C41.9067 27.68 41.3867 27.8 40.88 28.04C40.4 28.2533 39.9867 28.56 39.64 28.96C39.32 29.36 39.0533 29.8133 38.84 30.32C38.6267 30.8 38.4667 31.3067 38.36 31.84C38.2533 32.3467 38.1733 32.8667 38.12 33.4C38.0933 33.9333 38.08 34.4533 38.08 34.96V46H34.96Z" fill="white"/>
<path d="M43.746 21V17.088L42.906 17.748L42.648 17.454L43.746 16.59H44.214V21H43.746ZM46.2 21.048C46.104 21.048 46.006 21.04 45.906 21.024C45.81 21.012 45.716 20.986 45.624 20.946C45.536 20.906 45.454 20.854 45.378 20.79C45.302 20.726 45.238 20.652 45.186 20.568C45.134 20.484 45.096 20.396 45.072 20.304C45.048 20.208 45.036 20.11 45.036 20.01C45.036 19.882 45.058 19.756 45.102 19.632C45.146 19.504 45.204 19.388 45.276 19.284C45.352 19.176 45.438 19.078 45.534 18.99C45.63 18.902 45.73 18.818 45.834 18.738C45.738 18.662 45.646 18.582 45.558 18.498C45.474 18.414 45.4 18.322 45.336 18.222C45.272 18.118 45.22 18.008 45.18 17.892C45.144 17.776 45.126 17.658 45.126 17.538C45.126 17.446 45.136 17.356 45.156 17.268C45.18 17.176 45.214 17.09 45.258 17.01C45.306 16.93 45.364 16.86 45.432 16.8C45.504 16.736 45.58 16.684 45.66 16.644C45.744 16.604 45.832 16.578 45.924 16.566C46.016 16.55 46.108 16.542 46.2 16.542C46.292 16.542 46.384 16.55 46.476 16.566C46.568 16.578 46.654 16.604 46.734 16.644C46.818 16.684 46.894 16.736 46.962 16.8C47.034 16.86 47.092 16.93 47.136 17.01C47.184 17.09 47.218 17.176 47.238 17.268C47.262 17.356 47.274 17.446 47.274 17.538C47.274 17.658 47.254 17.776 47.214 17.892C47.178 18.008 47.128 18.118 47.064 18.222C47 18.322 46.924 18.414 46.836 18.498C46.752 18.582 46.662 18.662 46.566 18.738C46.67 18.818 46.77 18.902 46.866 18.99C46.962 19.078 47.046 19.176 47.118 19.284C47.194 19.388 47.254 19.504 47.298 19.632C47.342 19.756 47.364 19.882 47.364 20.01C47.364 20.11 47.352 20.208 47.328 20.304C47.304 20.396 47.266 20.484 47.214 20.568C47.162 20.652 47.098 20.726 47.022 20.79C46.946 20.854 46.862 20.906 46.77 20.946C46.682 20.986 46.588 21.012 46.488 21.024C46.392 21.04 46.296 21.048 46.2 21.048ZM46.2 18.474C46.276 18.414 46.35 18.352 46.422 18.288C46.494 18.224 46.558 18.154 46.614 18.078C46.67 18.002 46.716 17.918 46.752 17.826C46.788 17.734 46.806 17.64 46.806 17.544C46.806 17.468 46.792 17.392 46.764 17.316C46.736 17.236 46.694 17.17 46.638 17.118C46.582 17.062 46.514 17.022 46.434 16.998C46.358 16.974 46.28 16.962 46.2 16.962C46.12 16.962 46.04 16.974 45.96 16.998C45.884 17.022 45.818 17.062 45.762 17.118C45.706 17.17 45.664 17.236 45.636 17.316C45.608 17.392 45.594 17.468 45.594 17.544C45.594 17.64 45.612 17.734 45.648 17.826C45.684 17.918 45.73 18.002 45.786 18.078C45.842 18.154 45.906 18.224 45.978 18.288C46.05 18.352 46.124 18.414 46.2 18.474ZM46.2 20.628C46.288 20.628 46.376 20.618 46.464 20.598C46.552 20.574 46.628 20.534 46.692 20.478C46.76 20.418 46.81 20.346 46.842 20.262C46.878 20.178 46.896 20.092 46.896 20.004C46.896 19.896 46.874 19.794 46.83 19.698C46.79 19.598 46.736 19.508 46.668 19.428C46.604 19.344 46.53 19.268 46.446 19.2C46.366 19.132 46.284 19.068 46.2 19.008C46.116 19.068 46.032 19.132 45.948 19.2C45.868 19.268 45.794 19.344 45.726 19.428C45.662 19.508 45.608 19.598 45.564 19.698C45.524 19.794 45.504 19.896 45.504 20.004C45.504 20.092 45.52 20.178 45.552 20.262C45.588 20.346 45.638 20.418 45.702 20.478C45.77 20.534 45.848 20.574 45.936 20.598C46.024 20.618 46.112 20.628 46.2 20.628Z" fill="white"/>
<path d="M24.3612 36.9832C24.9212 37.4562 24.7987 38.3511 24.1322 38.6563L21.3403 39.9347C20.6234 40.263 19.8263 39.6712 19.9332 38.8899L20.3794 35.6299C20.4863 34.8487 21.4131 34.4928 22.0155 35.0016L24.3612 36.9832Z" fill="#7869BA"/>
<path d="M24.3612 36.9832C24.9212 37.4562 24.7987 38.3511 24.1322 38.6563L21.3403 39.9347C20.6234 40.263 19.8263 39.6712 19.9332 38.8899L20.3794 35.6299C20.4863 34.8487 21.4131 34.4928 22.0155 35.0016L24.3612 36.9832Z" fill="#7869BA"/>
<path d="M24.0332 38.5804C23.3902 38.2689 23.2718 37.4033 23.8075 36.9306L25.9701 35.0222C26.5686 34.494 27.5143 34.8455 27.6225 35.6364L28.0556 38.8023C28.1638 39.5932 27.3473 40.1858 26.6289 39.8378L24.0332 38.5804Z" fill="#7869BA"/>
<path d="M24.0332 38.5804C23.3902 38.2689 23.2718 37.4033 23.8075 36.9306L25.9701 35.0222C26.5686 34.494 27.5143 34.8455 27.6225 35.6364L28.0556 38.8023C28.1638 39.5932 27.3473 40.1858 26.6289 39.8378L24.0332 38.5804Z" fill="#7869BA"/>
<rect x="21.1387" y="35.0015" width="6" height="4" fill="#7869BA"/>
<path d="M23.134 34.5C23.5189 33.8333 24.4811 33.8333 24.866 34.5L26.5981 37.5C26.983 38.1667 26.5019 39 25.7321 39H22.2679C21.4981 39 21.017 38.1667 21.4019 37.5L23.134 34.5Z" fill="white"/>
</svg>
