<svg width="32" height="32" viewBox="0 0 32 32" fill="none" xmlns="http://www.w3.org/2000/svg">
<circle cx="16" cy="16" r="16" fill="#7869BA"/>
<path d="M20.5 15.5C20.5 18.9045 19.9471 21.9638 19.0713 24.1533C18.6329 25.2493 18.1232 26.1026 17.583 26.6738C17.0437 27.2441 16.5086 27.5 16 27.5C15.4914 27.5 14.9563 27.2441 14.417 26.6738C13.8768 26.1026 13.3671 25.2493 12.9287 24.1533C12.0529 21.9638 11.5 18.9045 11.5 15.5C11.5 12.0955 12.0529 9.03624 12.9287 6.84668C13.3671 5.75071 13.8768 4.89745 14.417 4.32617C14.9563 3.75592 15.4914 3.5 16 3.5C16.5086 3.5 17.0437 3.75592 17.583 4.32617C18.1232 4.89745 18.6329 5.75071 19.0713 6.84668C19.9471 9.03624 20.5 12.0955 20.5 15.5Z" stroke="white"/>
<path d="M16 20C12.5955 20 9.53624 19.4471 7.34668 18.5713C6.25071 18.1329 5.39745 17.6232 4.82617 17.083C4.25592 16.5437 4 16.0086 4 15.5C4 14.9914 4.25592 14.4563 4.82617 13.917C5.39745 13.3768 6.25071 12.8671 7.34668 12.4287C9.53624 11.5529 12.5955 11 16 11C19.4045 11 22.4638 11.5529 24.6533 12.4287C25.7493 12.8671 26.6026 13.3768 27.1738 13.917C27.7441 14.4563 28 14.9914 28 15.5C28 16.0086 27.7441 16.5437 27.1738 17.083C26.6026 17.6232 25.7493 18.1329 24.6533 18.5713C22.4638 19.4471 19.4045 20 16 20Z" stroke="white"/>
<path d="M12.8179 18.6821C10.4106 16.2748 8.63832 13.7206 7.70937 11.5531C7.2444 10.4681 7.00146 9.50434 6.97948 8.71841C6.95758 7.93385 7.15503 7.37448 7.51464 7.01486C7.87426 6.65525 8.43363 6.45781 9.21819 6.4797C10.0041 6.50168 10.9679 6.74462 12.0528 7.20959C14.2204 8.13854 16.7746 9.91085 19.1819 12.3182C21.5892 14.7255 23.3615 17.2797 24.2905 19.4472C24.7554 20.5322 24.9984 21.4959 25.0204 22.2819C25.0423 23.0664 24.8448 23.6258 24.4852 23.9854C24.1256 24.345 23.5662 24.5425 22.7817 24.5206C21.9957 24.4986 21.032 24.2557 19.947 23.7907C17.7795 22.8617 15.2253 21.0894 12.8179 18.6821Z" stroke="white"/>
<path d="M19.1821 18.6821C16.7748 21.0894 14.2206 22.8617 12.0531 23.7906C10.9681 24.2556 10.0043 24.4985 9.21841 24.5205C8.43385 24.5424 7.87448 24.345 7.51486 23.9854C7.15525 23.6257 6.95781 23.0664 6.9797 22.2818C7.00168 21.4959 7.24462 20.5321 7.70959 19.4472C8.63854 17.2796 10.4109 14.7254 12.8182 12.3181C15.2255 9.91079 17.7797 8.13848 19.9472 7.20953C21.0322 6.74456 21.9959 6.50161 22.7819 6.47963C23.5664 6.45774 24.1258 6.65518 24.4854 7.0148C24.845 7.37441 25.0425 7.93378 25.0206 8.71834C24.9986 9.50427 24.7557 10.468 24.2907 11.553C23.3617 13.7205 21.5894 16.2747 19.1821 18.6821Z" stroke="white"/>
<path d="M12.252 11.9302H12.4032" stroke="white" stroke-linecap="round"/>
<path d="M12.0703 18.9482C12.1608 18.9682 12.2615 19.0686 12.3171 19.1898C12.3323 19.2202 12.3522 19.2501 12.3775 19.2755C12.4027 19.3009 12.4327 19.3209 12.4938 19.3415" stroke="white" stroke-linecap="round"/>
<path d="M15.5186 20.6118H16.063" stroke="white" stroke-linecap="round"/>
<path d="M19.3301 19.4323C19.35 19.4323 19.3803 19.4024 19.4205 19.3421C19.4608 19.2817 19.5113 19.2309 19.5616 19.1857C19.5821 19.1604 19.592 19.1305 19.6023 19.0996" stroke="white" stroke-linecap="round"/>
<path d="M21.2054 15.9837C21.1652 15.7926 21.1249 15.6316 21.0846 15.4751C21.0644 15.4096 21.0442 15.3488 21.0241 15.2885C21.0139 15.2581 21.0039 15.2281 20.9937 15.1973" stroke="white" stroke-linecap="round"/>
<path d="M20.1167 12.4749C20.0867 12.265 19.986 11.8403 19.9002 11.7241C19.7743 11.6582 19.6632 11.6482 19.5979 11.6331C19.5625 11.6279 19.5226 11.6279 19.4814 11.6279" stroke="white" stroke-linecap="round"/>
<path d="M16.5473 10.5693C16.4674 10.5693 16.3864 10.5693 16.3109 10.5643C16.2753 10.5593 16.2454 10.5493 16.1751 10.5442C16.1047 10.539 15.9949 10.539 15.8516 10.5088" stroke="white" stroke-linecap="round"/>
<path d="M12.2822 11.9306C12.3022 11.9306 12.3624 11.9306 12.423 11.9206C12.4337 11.9106 12.4038 11.8907 12.3734 11.8754C12.343 11.8601 12.3131 11.8501 12.252 11.8398" stroke="white" stroke-linecap="round"/>
<path d="M11.0116 15.1064C10.9118 15.1264 10.8304 15.1666 10.7801 15.227C10.7394 15.3681 10.7594 15.5293 10.8097 15.6405C10.8298 15.6609 10.8598 15.6709 10.8906 15.6812" stroke="white" stroke-linecap="round"/>
</svg>
